<svg width="50" height="50" viewBox="0 0 50 50" fill="none" xmlns="http://www.w3.org/2000/svg">
<path d="M49.5606 1.5C49.5606 0.67157 48.889 -9.52705e-07 48.0606 -2.36294e-06L34.5606 7.29969e-06C33.7322 8.42407e-06 33.0606 0.67158 33.0606 1.50001C33.0606 2.32844 33.7322 3.00001 34.5606 3.00001L46.5606 3L46.5606 15C46.5606 15.8284 47.2322 16.5 48.0606 16.5C48.889 16.5 49.5606 15.8284 49.5606 15L49.5606 1.5ZM1.06067 48.5L2.12133 49.5607L49.1213 2.56066L48.0606 1.5L46.9999 0.43934L8.06202e-06 47.4393L1.06067 48.5Z" fill="white"/>
</svg>
