<svg width="163" height="50" viewBox="0 0 163 50" fill="none" xmlns="http://www.w3.org/2000/svg">
<path d="M0.206816 23.9991C0.321037 10.7448 11.1584 0.0925947 24.4127 0.206816C37.6671 0.321037 162.862 6.64529 162.748 19.8996C162.634 33.154 37.2535 48.3193 23.9991 48.205C10.7448 48.0908 0.0925947 37.2535 0.206816 23.9991Z" fill="#EEEEEE"/>
<path d="M13.9796 23.0572C13.3888 23.6379 13.3806 24.5876 13.9613 25.1784L23.4247 34.8062C24.0054 35.397 24.9551 35.4052 25.5459 34.8245C26.1367 34.2437 26.1449 33.294 25.5642 32.7032L17.1523 24.1452L25.7103 15.7333C26.3011 15.1526 26.3093 14.2029 25.7286 13.612C25.1479 13.0212 24.1982 13.0131 23.6074 13.5938L13.9796 23.0572ZM31.2056 24.2662L31.2186 22.7663L15.044 22.627L15.031 24.1269L15.0181 25.6269L31.1927 25.7662L31.2056 24.2662Z" fill="#090909"/>
</svg>
